<svg xmlns="http://www.w3.org/2000/svg" width="24" height="29" viewBox="0 0 24 29"><g><g><path fill="#e78b48" d="M11.998 15.07c-2.582 0-4.703-2.042-4.703-4.54 0-2.496 2.121-4.539 4.703-4.539 2.582 0 4.703 2.043 4.703 4.54 0 2.496-2.121 4.54-4.703 4.54zm9.513-10.077C19.34 1.86 15.88.09 12.003.09c-3.877 0-7.338 1.77-9.508 4.903-2.169 3.086-2.677 6.99-1.338 10.44.37.908.923 1.862 1.661 2.724l9.185 10.577 9.138-10.577c.739-.862 1.339-1.77 1.662-2.724 1.385-3.45.877-7.354-1.292-10.44z"/></g></g></svg>