<svg xmlns="http://www.w3.org/2000/svg" width="22" height="16" viewBox="0 0 22 16"><g xmlns="http://www.w3.org/2000/svg" transform="translate(1249.579,-2872.003)" id="g6">
    <g id="g4" transform="rotate(-90,822,2069)">
        <path style="fill:#fff" id="path2" d="m 11.825,18.27 6.737,-5.923 c 0.555,-0.495 0.559,-1.29 0.125,-1.792 -0.434,-0.502 -1.284,-0.561 -1.783,-0.125 l -4.645,4.085 V -1.31 c 0,-0.7 -0.566,-1.269 -1.263,-1.269 -0.698,0 -1.263,0.568 -1.263,1.27 V 14.516 L 5.088,10.43 C 4.588,9.994 3.751,10.065 3.305,10.555 2.837,11.069 2.93,11.911 3.43,12.347 l 6.737,5.923 c 0.552,0.416 1.174,0.394 1.658,0 z"/>
    </g>
</g></svg>
