<svg xmlns="http://www.w3.org/2000/svg" width="17" height="17" viewBox="0 0 17 17"><g><g><path fill="#fff" d="M0 2a2 2 0 0 1 2-2h13a2 2 0 0 1 2 2v13a2 2 0 0 1-2 2H2a2 2 0 0 1-2-2z"/></g><g opacity="1" transform="rotate(-180 8 9.5)"><g opacity="1"><path fill="#bfbfbf" d="M5.178 11.885a.444.444 0 0 0 .628 0l3.021-3.02a.444.444 0 0 0 0-.628l-3.02-3.019a.444.444 0 1 0-.628.629L7.885 8.55 5.18 11.256a.444.444 0 0 0-.001.629z"/></g><g opacity="1"><path fill="#bfbfbf" d="M10 5h1v7h-1z"/></g></g></g></svg>
